<svg width="60" height="33" viewBox="0 0 60 33" fill="none" xmlns="http://www.w3.org/2000/svg">
<g clip-path="url(#clip0_2_53)">
<path d="M0 0H6.25621C10.2946 0 13.0222 0.190241 14.4389 0.570723C15.8689 0.951204 16.9547 1.57628 17.6961 2.44595C18.4376 3.31563 18.901 4.28721 19.0864 5.36072C19.2718 6.42063 19.3645 8.51328 19.3645 11.6387V23.1958C19.3645 26.1581 19.2254 28.1421 18.9474 29.1476C18.6826 30.1396 18.2125 30.9209 17.5372 31.4917C16.862 32.0488 16.0278 32.4429 15.0348 32.6739C14.0417 32.8913 12.5455 33 10.5462 33H0V0ZM8.36147 5.64608V27.3539C9.56637 27.3539 10.3078 27.1093 10.5859 26.6201C10.864 26.1174 11.003 24.7653 11.003 22.5639V9.74305C11.003 8.2483 10.9566 7.2903 10.864 6.86905C10.7713 6.44781 10.5594 6.14206 10.2284 5.95182C9.89738 5.74799 9.27507 5.64608 8.36147 5.64608Z" fill="#262626"/>
<path d="M48.282 0V33H40.9732V10.7214L38.0536 33H32.8699L29.7915 11.231V33H22.4826V0H33.3069C33.6246 1.98394 33.9623 4.32119 34.3198 7.01173L35.4717 15.4095L37.3784 0H48.282Z" fill="#262626"/>
<path d="M60 0V33H51.6385V0H60Z" fill="#262626"/>
</g>
<defs>
<clipPath id="clip0_2_53">
<rect width="60" height="33" fill="white"/>
</clipPath>
</defs>
</svg>
